HIERARCHY
ROOT Hips
{
	OFFSET 0.000000 71.427986 0.000000
	CHANNELS 6 Xposition Yposition Zposition Xrotation Yrotation Zrotation
	JOINT Pelvis
	{
		OFFSET 0.000000 0.000000 0.000000
		CHANNELS 3 Xrotation Yrotation Zrotation
		JOINT LeftUpLeg
		{
			OFFSET 6.797100 -2.508499 -1.318700
			CHANNELS 3 Xrotation Yrotation Zrotation
			JOINT LeftLeg
			{
				OFFSET 0.069008 -29.241863 0.690200
				CHANNELS 3 Xrotation Yrotation Zrotation
				JOINT LeftFoot
				{
					OFFSET -0.069008 -29.568123 -0.266800
					CHANNELS 3 Xrotation Yrotation Zrotation
					JOINT LeftToeBase
					{
						OFFSET 3.145500 -8.631000 16.059900
						CHANNELS 3 Xrotation Yrotation Zrotation
						End Site
						{
							OFFSET 0.000000 18.501587 0.000000
						}
					}
				}
			}
			JOINT Left_ShortSleeve
			{
				OFFSET 0.265923 -10.480953 1.153800
				CHANNELS 3 Xrotation Yrotation Zrotation
				End Site
				{
					OFFSET 1.725763 19.823879 0.000000
				}
			}
		}
		JOINT RightUpLeg
		{
			OFFSET -6.797100 -2.508499 -1.318700
			CHANNELS 3 Xrotation Yrotation Zrotation
			JOINT RightLeg
			{
				OFFSET -0.082453 -29.241932 0.688000
				CHANNELS 3 Xrotation Yrotation Zrotation
				JOINT RightFoot
				{
					OFFSET 0.082453 -29.568058 -0.264600
					CHANNELS 3 Xrotation Yrotation Zrotation
					JOINT RightToeBase
					{
						OFFSET -3.115300 -8.682800 16.113400
						CHANNELS 3 Xrotation Yrotation Zrotation
						End Site
						{
							OFFSET 0.000000 18.567114 0.000000
						}
					}
				}
			}
			JOINT Right_ShortSleeve
			{
				OFFSET -0.265923 -10.480953 1.153800
				CHANNELS 3 Xrotation Yrotation Zrotation
				End Site
				{
					OFFSET -1.725766 19.823910 0.000000
				}
			}
		}
	}
	JOINT Spine
	{
		OFFSET 0.000000 13.368103 0.470500
		CHANNELS 3 Xrotation Yrotation Zrotation
		JOINT Spine1
		{
			OFFSET 0.147000 13.837402 0.538800
			CHANNELS 3 Xrotation Yrotation Zrotation
			JOINT Spine2
			{
				OFFSET 0.168000 16.242897 -1.435500
				CHANNELS 3 Xrotation Yrotation Zrotation
				JOINT Neck
				{
					OFFSET 0.217200 18.631500 -1.679100
					CHANNELS 3 Xrotation Yrotation Zrotation
					JOINT Head
					{
						OFFSET 0.000000 6.599396 1.385900
						CHANNELS 3 Xrotation Yrotation Zrotation
						JOINT Hat
						{
							OFFSET -0.532200 27.220596 -10.096100
							CHANNELS 3 Xrotation Yrotation Zrotation
							End Site
							{
								OFFSET 0.000000 22.029861 0.000000
							}
						}
						JOINT HairD
						{
							OFFSET -10.777400 17.437393 -1.325900
							CHANNELS 3 Xrotation Yrotation Zrotation
							JOINT HairD1
							{
								OFFSET -3.290299 -11.051193 1.062200
								CHANNELS 3 Xrotation Yrotation Zrotation
								End Site
								{
									OFFSET 0.000000 11.579437 0.000000
								}
							}
						}
						JOINT HairB
						{
							OFFSET -10.777400 17.437393 1.467900
							CHANNELS 3 Xrotation Yrotation Zrotation
							JOINT HairB1
							{
								OFFSET -1.561200 -12.956299 3.590200
								CHANNELS 3 Xrotation Yrotation Zrotation
								End Site
								{
									OFFSET 0.000000 13.534866 0.000000
								}
							}
						}
						JOINT HairA
						{
							OFFSET 9.713100 17.437393 1.467900
							CHANNELS 3 Xrotation Yrotation Zrotation
							JOINT HairA1
							{
								OFFSET 1.561200 -12.956299 3.590200
								CHANNELS 3 Xrotation Yrotation Zrotation
								End Site
								{
									OFFSET 0.000000 13.534866 0.000000
								}
							}
						}
						JOINT HairC
						{
							OFFSET 9.713100 17.437393 -1.325900
							CHANNELS 3 Xrotation Yrotation Zrotation
							JOINT HairC1
							{
								OFFSET 3.290300 -11.051193 1.062200
								CHANNELS 3 Xrotation Yrotation Zrotation
								End Site
								{
									OFFSET 0.000000 11.579437 0.000000
								}
							}
						}
					}
				}
				JOINT LeftShoulder
				{
					OFFSET 5.101800 15.108002 -2.763700
					CHANNELS 3 Xrotation Yrotation Zrotation
					JOINT LeftArm
					{
						OFFSET 9.825497 2.506317 -1.597400
						CHANNELS 3 Xrotation Yrotation Zrotation
						JOINT LeftForeArm
						{
							OFFSET 21.966244 0.000000 0.000000
							CHANNELS 3 Xrotation Yrotation Zrotation
							JOINT LeftHand
							{
								OFFSET 33.879036 0.000000 0.000000
								CHANNELS 3 Xrotation Yrotation Zrotation
								JOINT LeftHandThumb1
								{
									OFFSET 6.715286 -2.359680 3.363841
									CHANNELS 3 Xrotation Yrotation Zrotation
									JOINT LeftHandThumb2
									{
										OFFSET 2.507072 -1.447464 1.447461
										CHANNELS 3 Xrotation Yrotation Zrotation
										JOINT LeftHandThumb3
										{
											OFFSET 2.898338 -1.673355 1.673357
											CHANNELS 3 Xrotation Yrotation Zrotation
											End Site
											{
												OFFSET -0.295959 3.727692 -0.131651
											}
										}
									}
								}
								JOINT LeftHandIndex1
								{
									OFFSET 14.190811 -0.254547 3.840278
									CHANNELS 3 Xrotation Yrotation Zrotation
									JOINT LeftHandIndex2
									{
										OFFSET 3.551727 0.000000 -0.000000
										CHANNELS 3 Xrotation Yrotation Zrotation
										JOINT LeftHandIndex3
										{
											OFFSET 2.894196 0.000000 0.000000
											CHANNELS 3 Xrotation Yrotation Zrotation
											End Site
											{
												OFFSET -1.000603 2.690872 0.366626
											}
										}
									}
								}
								JOINT LeftHandMiddle1
								{
									OFFSET 13.776489 0.000000 0.000000
									CHANNELS 3 Xrotation Yrotation Zrotation
									JOINT LeftHandMiddle2
									{
										OFFSET 3.438232 0.000000 0.000000
										CHANNELS 3 Xrotation Yrotation Zrotation
										JOINT LeftHandMiddle3
										{
											OFFSET 3.691551 0.000000 0.000000
											CHANNELS 3 Xrotation Yrotation Zrotation
											End Site
											{
												OFFSET -1.082298 3.499527 0.457670
											}
										}
									}
								}
								JOINT LeftHandRing1
								{
									OFFSET 13.966164 -0.268127 -3.067488
									CHANNELS 3 Xrotation Yrotation Zrotation
									JOINT LeftHandRing2
									{
										OFFSET 3.162567 0.000000 0.000000
										CHANNELS 3 Xrotation Yrotation Zrotation
										JOINT LeftHandRing3
										{
											OFFSET 3.324348 0.000000 0.000000
											CHANNELS 3 Xrotation Yrotation Zrotation
											End Site
											{
												OFFSET -0.861900 3.184998 0.405154
											}
										}
									}
								}
								JOINT LeftHandPinky1
								{
									OFFSET 13.131393 -0.168503 -5.746925
									CHANNELS 3 Xrotation Yrotation Zrotation
									JOINT LeftHandPinky2
									{
										OFFSET 2.849182 0.000000 0.000000
										CHANNELS 3 Xrotation Yrotation Zrotation
										JOINT LeftHandPinky3
										{
											OFFSET 2.805038 0.000000 0.000000
											CHANNELS 3 Xrotation Yrotation Zrotation
											End Site
											{
												OFFSET -0.882500 2.642609 0.325652
											}
										}
									}
								}
							}
							JOINT Left_Sleeve
							{
								OFFSET 6.592125 -0.646545 0.805568
								CHANNELS 3 Xrotation Yrotation Zrotation
								End Site
								{
									OFFSET -0.000179 20.275787 -0.000000
								}
							}
						}
					}
				}
				JOINT RightShoulder
				{
					OFFSET -5.731700 15.108002 -2.763700
					CHANNELS 3 Xrotation Yrotation Zrotation
					JOINT RightArm
					{
						OFFSET -9.825497 2.506317 -1.597400
						CHANNELS 3 Xrotation Yrotation Zrotation
						JOINT RightForeArm
						{
							OFFSET -21.966242 0.000000 0.000000
							CHANNELS 3 Xrotation Yrotation Zrotation
							JOINT RightHand
							{
								OFFSET -33.879032 0.000000 0.000000
								CHANNELS 3 Xrotation Yrotation Zrotation
								JOINT RightHandThumb1
								{
									OFFSET -6.715286 -2.359680 3.363841
									CHANNELS 3 Xrotation Yrotation Zrotation
									JOINT RightHandThumb2
									{
										OFFSET -2.507072 -1.447464 1.447461
										CHANNELS 3 Xrotation Yrotation Zrotation
										JOINT RightHandThumb3
										{
											OFFSET -2.898338 -1.673355 1.673357
											CHANNELS 3 Xrotation Yrotation Zrotation
											End Site
											{
												OFFSET 0.295959 3.727692 -0.131651
											}
										}
									}
								}
								JOINT RightHandIndex1
								{
									OFFSET -14.190811 -0.254547 3.840278
									CHANNELS 3 Xrotation Yrotation Zrotation
									JOINT RightHandIndex2
									{
										OFFSET -3.551727 0.000000 -0.000000
										CHANNELS 3 Xrotation Yrotation Zrotation
										JOINT RightHandIndex3
										{
											OFFSET -2.894196 0.000000 0.000000
											CHANNELS 3 Xrotation Yrotation Zrotation
											End Site
											{
												OFFSET 1.000603 2.690872 0.366626
											}
										}
									}
								}
								JOINT RightHandMiddle1
								{
									OFFSET -13.776489 0.000000 0.000000
									CHANNELS 3 Xrotation Yrotation Zrotation
									JOINT RightHandMiddle2
									{
										OFFSET -3.438232 0.000000 0.000000
										CHANNELS 3 Xrotation Yrotation Zrotation
										JOINT RightHandMiddle3
										{
											OFFSET -3.691551 0.000000 0.000000
											CHANNELS 3 Xrotation Yrotation Zrotation
											End Site
											{
												OFFSET 1.082298 3.499527 0.457670
											}
										}
									}
								}
								JOINT RightHandRing1
								{
									OFFSET -13.966164 -0.268127 -3.067488
									CHANNELS 3 Xrotation Yrotation Zrotation
									JOINT RightHandRing2
									{
										OFFSET -3.162567 0.000000 0.000000
										CHANNELS 3 Xrotation Yrotation Zrotation
										JOINT RightHandRing3
										{
											OFFSET -3.324348 0.000000 0.000000
											CHANNELS 3 Xrotation Yrotation Zrotation
											End Site
											{
												OFFSET 0.861900 3.184998 0.405154
											}
										}
									}
								}
								JOINT RightHandPinky1
								{
									OFFSET -13.131393 -0.168503 -5.746925
									CHANNELS 3 Xrotation Yrotation Zrotation
									JOINT RightHandPinky2
									{
										OFFSET -2.849182 0.000000 0.000000
										CHANNELS 3 Xrotation Yrotation Zrotation
										JOINT RightHandPinky3
										{
											OFFSET -2.805038 0.000000 0.000000
											CHANNELS 3 Xrotation Yrotation Zrotation
											End Site
											{
												OFFSET 0.882500 2.642609 0.325652
											}
										}
									}
								}
							}
							JOINT Right_Sleeve
							{
								OFFSET -6.592125 -0.646545 0.805568
								CHANNELS 3 Xrotation Yrotation Zrotation
								End Site
								{
									OFFSET 0.000179 20.275787 -0.000000
								}
							}
						}
					}
				}
				JOINT Bind_Right_JacketString
				{
					OFFSET -3.534800 11.969597 7.200700
					CHANNELS 3 Xrotation Yrotation Zrotation
					JOINT Bind_Right_JacketString1
					{
						OFFSET -0.319900 -6.102600 2.794100
						CHANNELS 3 Xrotation Yrotation Zrotation
						End Site
						{
							OFFSET 0.000000 6.719452 0.000000
						}
					}
				}
				JOINT Bind_Left_JacketString
				{
					OFFSET 2.904800 11.969597 7.200700
					CHANNELS 3 Xrotation Yrotation Zrotation
					JOINT Bind_Left_JacketString1
					{
						OFFSET 0.364800 -5.904503 3.186800
						CHANNELS 3 Xrotation Yrotation Zrotation
						End Site
						{
							OFFSET 0.000000 6.719513 0.000000
						}
					}
				}
				JOINT HairE
				{
					OFFSET 5.915200 17.612701 -11.592200
					CHANNELS 3 Xrotation Yrotation Zrotation
					JOINT HairE1
					{
						OFFSET 0.289200 -7.171898 -1.284500
						CHANNELS 3 Xrotation Yrotation Zrotation
						End Site
						{
							OFFSET 0.000000 7.291756 0.000000
						}
					}
				}
				JOINT HairF
				{
					OFFSET -0.864800 17.612701 -11.592200
					CHANNELS 3 Xrotation Yrotation Zrotation
					JOINT HairF1
					{
						OFFSET 0.000000 -14.087097 -2.127501
						CHANNELS 3 Xrotation Yrotation Zrotation
						End Site
						{
							OFFSET 0.000000 14.246841 0.000000
						}
					}
				}
				JOINT HairG
				{
					OFFSET -8.087700 17.612701 -11.592200
					CHANNELS 3 Xrotation Yrotation Zrotation
					JOINT HairG1
					{
						OFFSET -0.293600 -6.081398 -0.910100
						CHANNELS 3 Xrotation Yrotation Zrotation
						End Site
						{
							OFFSET 0.000000 6.156120 0.000000
						}
					}
				}
			}
		}
	}
	JOINT Pouch
	{
		OFFSET 0.000000 4.394501 10.847300
		CHANNELS 3 Xrotation Yrotation Zrotation
		End Site
		{
			OFFSET 0.000000 21.880577 0.000000
		}
	}
	JOINT Bag
	{
		OFFSET -13.229000 4.813004 -0.593300
		CHANNELS 3 Xrotation Yrotation Zrotation
		End Site
		{
			OFFSET 0.000000 21.880577 0.000000
		}
	}
	JOINT OccupyGuyFacialAnim_Joint
	{
		OFFSET 1.000000 -70.206398 -1.655000
		CHANNELS 3 Xrotation Yrotation Zrotation
		End Site
		{
			OFFSET 0.000000 21.880577 0.000000
		}
	}
}
MOTION
Frames: 4
Frame Time: 0.033333
-0.459339 62.268661 1.093338 16.174180 -12.730642 17.023873 0.000000 -0.000001 0.000002 -52.261001 10.452934 22.338798 55.299182 9.837492 -9.549643 9.663397 14.042080 -15.306234 -0.000000 -0.000001 -0.000000 0.000000 -0.000001 0.000000 -58.878997 6.907158 4.632914 62.322922 -1.181655 -10.055346 -20.998971 -8.434397 -0.774413 -0.000000 -0.000001 -0.000000 0.000001 0.000002 -0.000001 12.241619 0.639102 8.837103 8.963642 -1.639855 3.503844 8.939863 -1.755666 3.518425 -0.230568 -12.391579 2.920199 -16.391868 -63.561645 8.878735 0.000002 0.000000 -0.000001 0.000002 0.000000 -0.000001 0.000002 0.000000 -0.000000 0.000002 0.000000 -0.000000 0.000001 -0.000000 -0.000002 0.000002 0.000000 -0.000000 0.000001 -0.000000 -0.000002 0.000002 0.000000 -0.000001 0.000002 0.000000 -0.000001 1.085804 -12.540288 -3.464813 -20.647754 -9.564789 -45.360898 -0.000004 -46.761493 -0.000004 -27.898437 -15.562770 -0.727385 -0.603932 14.088622 -13.263029 16.803288 5.559020 38.055676 -0.000001 -0.000000 -0.000001 0.226153 3.729295 -13.492460 0.754170 2.877245 -29.370018 0.000002 -0.000002 -0.000004 0.827051 5.249157 -29.533817 1.746412 4.173294 -45.400769 0.000000 0.000000 0.000001 1.509064 6.207329 -41.079343 1.066427 3.371750 -35.094065 0.000002 0.000000 -0.000003 2.005750 6.708843 -48.005390 1.229372 3.592059 -37.776482 -0.000001 0.000001 -0.000001 0.000001 -0.000001 0.000004 0.125688 11.473139 16.231425 1.108997 -0.649332 46.951994 0.000023 62.222723 -0.000024 28.129654 21.084302 -23.578180 -3.269907 -11.215796 14.209839 14.769381 -12.319411 -39.517193 0.000000 0.000000 -0.000000 0.133447 -1.393400 -10.973197 0.582743 -2.257631 28.943483 0.000002 -0.000001 0.000000 0.085385 -2.870917 7.249671 0.459948 -2.019868 25.653851 0.000001 0.000003 -0.000000 0.346105 -3.921396 20.580738 0.362171 -1.802322 22.722629 -0.000000 -0.000000 -0.000001 0.571749 -4.427120 27.395988 0.410483 -1.913535 24.212624 -0.000001 -0.000001 -0.000001 -0.000000 -0.000001 -0.000000 -0.000002 -0.000001 -0.000003 -0.000002 -0.000001 -0.000003 -0.000002 -0.000001 -0.000002 -0.000002 -0.000001 -0.000002 -0.000002 -0.000001 -0.000003 -0.000002 -0.000001 -0.000003 -0.000002 -0.000001 -0.000002 -0.000002 -0.000001 -0.000002 -0.000002 -0.000001 -0.000003 -0.000002 -0.000001 -0.000003 0.000000 -0.000001 0.000002 0.000000 -0.000001 0.000002 0.000000 -0.000001 0.000002 
-2.477386 63.703178 -0.736576 14.167682 -11.259445 16.205061 0.000001 0.000000 -0.000000 -49.532368 13.456911 20.337728 62.244607 10.079349 -10.324870 6.508527 10.975392 -15.715470 0.000001 0.000002 -0.000001 -0.000004 0.000001 -0.000001 -54.659733 4.358517 4.866233 55.443087 -0.761392 -10.192446 -16.773058 -7.951595 -2.230551 0.000000 -0.000000 0.000000 -0.000003 0.000001 0.000001 11.170917 -1.189477 6.964769 8.247961 -2.538556 2.458576 8.223234 -2.626810 2.453363 1.039955 -12.026610 3.304930 -11.085564 -63.293533 12.965725 -0.000000 0.000000 -0.000000 -0.000000 0.000000 -0.000000 -0.000000 0.000000 0.000000 -0.000000 0.000000 -0.000000 -0.000000 -0.000001 -0.000001 -0.000000 0.000000 -0.000000 -0.000000 -0.000001 -0.000001 -0.000000 0.000000 -0.000000 -0.000000 0.000000 -0.000000 1.152815 -14.682079 1.057199 -20.301257 -13.767403 -40.467378 -0.000002 -50.793962 0.000009 -27.321274 -14.820474 -4.313961 -0.603922 14.088647 -13.263023 16.803256 5.559003 38.055652 0.000003 0.000001 -0.000001 0.259842 3.862534 -14.835371 0.788932 2.938042 -30.055155 -0.000001 0.000001 -0.000003 0.862085 5.309865 -30.220380 1.796698 4.222172 -46.087760 0.000001 -0.000003 0.000000 1.555667 6.259847 -41.767744 1.107091 3.428795 -35.779816 -0.000002 0.000003 0.000000 2.058431 6.755396 -48.694912 1.272700 3.647172 -38.462561 -0.000000 0.000002 0.000001 -0.000000 -0.000000 -0.000001 0.594387 9.024938 12.943951 8.447576 2.074150 45.113311 0.000080 71.577008 -0.000094 29.959006 19.673545 -22.853417 -3.269924 -11.215807 14.209845 14.769377 -12.319413 -39.517190 -0.000001 -0.000000 0.000003 0.110880 -1.518903 -9.408569 0.646027 -2.368321 30.511251 -0.000001 0.000001 0.000000 0.103226 -2.997179 8.815810 0.516739 -2.134020 27.221135 -0.000000 -0.000002 0.000002 0.392676 -4.040154 22.149188 0.413054 -1.919224 24.289515 0.000001 0.000000 0.000002 0.632140 -4.539526 28.965924 0.464387 -2.029085 25.779699 0.000002 0.000000 -0.000001 -0.000000 -0.000000 -0.000001 0.000002 0.000000 0.000001 0.000004 -0.000000 0.000001 0.000002 0.000000 -0.000000 0.000002 0.000000 -0.000000 0.000002 0.000000 0.000001 0.000004 -0.000000 0.000002 0.000002 0.000000 -0.000000 0.000002 0.000000 -0.000000 0.000002 0.000000 0.000001 0.000004 -0.000000 0.000002 0.000001 0.000000 -0.000000 0.000001 0.000000 -0.000000 0.000001 0.000000 -0.000000 
-4.685928 65.471771 -2.521531 12.757684 -9.485395 15.088719 -0.000001 0.000000 -0.000000 -44.953037 16.181849 17.650524 64.550362 10.158976 -10.310064 8.361049 10.096834 -20.228022 -0.000002 0.000001 -0.000001 0.000000 -0.000001 0.000000 -49.597606 0.924642 5.200352 46.248505 0.335109 -10.345072 -12.400449 -6.982260 -3.474312 -0.000000 -0.000001 0.000000 0.000001 0.000000 -0.000001 9.865295 -3.582174 5.493309 7.164208 -4.038826 1.774549 7.152850 -4.107633 1.830769 2.635278 -11.519016 4.418794 -3.999179 -61.780905 18.900238 -0.000001 0.000000 -0.000000 -0.000001 0.000000 -0.000000 -0.000001 0.000000 0.000000 -0.000001 0.000000 0.000000 -0.000001 -0.000002 -0.000001 -0.000001 0.000000 0.000000 -0.000001 -0.000002 -0.000001 -0.000001 0.000000 -0.000000 -0.000001 0.000000 -0.000000 1.893696 -15.845573 6.606436 -20.469332 -17.464191 -34.264969 -0.000022 -54.596321 -0.000018 -26.918587 -13.527862 -9.662927 -0.603922 14.088641 -13.263024 16.803288 5.558983 38.055632 0.000002 0.000001 0.000002 0.364613 4.212605 -18.408427 0.884895 3.097744 -31.877582 0.000002 0.000002 0.000000 0.958809 5.469280 -32.046865 1.933283 4.349164 -47.915382 0.000003 -0.000001 -0.000003 1.682699 6.396745 -43.599140 1.218595 3.578126 -37.604009 0.000001 -0.000001 -0.000004 2.201295 6.876059 -50.529255 1.391077 3.791127 -40.287639 -0.000002 -0.000002 -0.000003 -0.000000 0.000002 0.000004 0.871147 5.788628 9.709817 15.915061 3.324147 41.538014 0.000215 86.055350 -0.000242 31.549006 18.503925 -21.897433 -3.269908 -11.215790 14.209854 14.769381 -12.319420 -39.517186 0.000002 0.000000 -0.000000 0.070151 -1.828352 -5.577678 0.813570 -2.631776 34.350620 0.000000 0.000001 0.000002 0.161439 -3.303812 12.651074 0.668869 -2.406640 31.059220 0.000004 0.000001 0.000003 0.520305 -4.325116 25.990548 0.550977 -2.199244 28.126558 0.000001 -0.000002 -0.000000 0.792900 -4.807357 32.811112 0.609585 -2.305420 29.617247 -0.000000 0.000004 0.000006 -0.000000 0.000001 0.000001 -0.000000 0.000000 0.000001 -0.000002 -0.000001 -0.000001 -0.000000 0.000000 0.000001 -0.000000 0.000000 0.000001 -0.000000 0.000000 0.000001 -0.000002 -0.000001 -0.000001 -0.000000 0.000000 0.000001 -0.000000 0.000000 0.000001 -0.000000 0.000000 0.000001 -0.000002 -0.000001 -0.000001 -0.000001 0.000000 -0.000000 -0.000001 0.000000 -0.000000 -0.000001 0.000000 -0.000000 
-6.850422 67.045822 -4.583829 12.457351 -9.570418 13.480095 -0.000000 0.000000 -0.000000 -40.666485 17.718148 15.788122 65.891969 9.413949 -10.669478 11.257048 10.255474 -23.746867 0.000001 -0.000000 0.000001 0.000001 -0.000001 0.000001 -45.938090 -3.152664 5.001629 37.806982 1.498379 -6.948911 -9.311183 -1.540996 -3.871616 -0.000000 -0.000000 -0.000000 -0.000001 0.000000 -0.000001 8.329584 -5.493100 3.956480 6.026310 -5.061440 1.039001 6.032594 -4.981651 1.119128 4.252511 -11.039800 5.797798 2.260001 -57.361998 24.159827 0.000002 -0.000000 -0.000001 0.000002 -0.000000 -0.000001 0.000002 -0.000000 -0.000001 0.000002 -0.000000 -0.000001 -0.000000 0.000001 0.000000 0.000002 -0.000000 -0.000001 -0.000000 0.000001 0.000000 0.000002 -0.000000 -0.000001 0.000002 -0.000000 -0.000001 2.980526 -16.367199 12.862520 -19.928697 -20.832366 -27.121551 0.000004 -57.011613 0.000001 -26.329949 -12.719216 -14.549795 -0.603915 14.088654 -13.263031 16.803292 5.559009 38.055663 -0.000001 -0.000001 -0.000002 0.552374 4.701057 -23.529076 1.031069 3.320924 -34.488272 0.000004 0.000000 -0.000000 1.106143 5.692026 -34.663678 2.135819 4.523335 -50.533530 0.000006 -0.000003 0.000002 1.872189 6.585610 -46.223056 1.386412 3.785634 -40.217274 -0.000004 0.000001 0.000001 2.412539 7.040826 -53.157341 1.568524 3.990554 -42.902174 -0.000000 -0.000001 0.000001 0.000001 -0.000000 -0.000000 0.753372 2.940649 8.116759 23.183083 1.870518 36.455950 0.000372 99.234787 -0.000359 33.922893 16.573304 -22.078810 -3.269903 -11.215808 14.209845 14.769372 -12.319396 -39.517163 0.000000 0.000000 -0.000000 0.048477 -2.218950 -0.774852 1.047950 -2.945181 39.165630 0.000001 0.000000 0.000004 0.263256 -3.681609 17.460856 0.884785 -2.732960 35.872526 -0.000000 -0.000001 -0.000001 0.706945 -4.669237 30.808784 0.749880 -2.536201 32.938348 0.000002 -0.000005 0.000002 1.019381 -5.126919 37.634315 0.817192 -2.637094 34.429812 -0.000000 0.000005 0.000001 0.000001 0.000002 -0.000001 -0.000000 -0.000001 0.000001 -0.000001 0.000002 -0.000001 -0.000000 -0.000001 0.000002 -0.000000 -0.000001 0.000002 -0.000000 -0.000001 0.000001 -0.000001 0.000002 -0.000001 -0.000000 -0.000001 0.000002 -0.000000 -0.000001 0.000002 -0.000000 -0.000001 0.000001 -0.000001 0.000002 -0.000001 -0.000000 0.000000 -0.000000 -0.000000 0.000000 -0.000000 -0.000000 0.000000 -0.000000 
